<svg width="12" height="14" viewBox="0 0 12 14" fill="none" xmlns="http://www.w3.org/2000/svg">
<path fill-rule="evenodd" clip-rule="evenodd" d="M6 0C6.41421 0 6.75 0.335786 6.75 0.75L6.75 11.3879L10.7094 7.23017C10.9965 6.93159 11.4713 6.92228 11.7698 7.20938C12.0684 7.49647 12.0777 7.97125 11.7906 8.26983L6.54063 13.7698C6.39922 13.9169 6.20401 14 6 14C5.79599 14 5.60078 13.9169 5.45938 13.7698L0.209376 8.26983C-0.077719 7.97125 -0.0684094 7.49647 0.230169 7.20938C0.528748 6.92228 1.00353 6.93159 1.29063 7.23017L5.25 11.3879L5.25 0.75C5.25 0.335786 5.58579 0 6 0Z" fill="#F7941E"/>
</svg>
